/* XPM */
static char *aab9112d94454f2da211ca4b37b81d9avXyU3sucV3cRQ7ct[] = {
/* columns rows colors chars-per-pixel */
"16 16 92 1 ",
"  c None",
". c #10FFAF",
"X c #00E5BC",
"o c #0FFBB3",
"O c #10FFB0",
"+ c #1AFFB3",
"@ c #1BFFB3",
"# c #18FBB5",
"$ c #1CFBB7",
"% c #1DFFB4",
"& c #1EFFB4",
"* c #1DFCB6",
"= c #14F0BB",
"- c #19F1BD",
"; c #03BCDB",
": c #0BBEDC",
"> c #0DBCDC",
", c #0098EF",
"< c #008FF4",
"1 c #008FF6",
"2 c #0092F5",
"3 c #0091F6",
"4 c #0094F6",
"5 c #0095F6",
"6 c #019EF0",
"7 c #00AEE1",
"8 c #05AFE2",
"9 c #00A4E8",
"0 c #04A8E9",
"q c #08A8E9",
"w c #00B1E2",
"e c #09B4E3",
"r c #04A0F0",
"t c #28BCE6",
"y c #30BEE8",
"u c #21A5F1",
"i c #3AAAF7",
"p c #47BEEE",
"a c #48AFF8",
"s c #4FBAF4",
"d c #00D9C4",
"f c #09D0CF",
"g c #0EDCC8",
"h c #15DEC9",
"j c #14DDCA",
"k c #06C5D6",
"l c #0EC8D7",
"z c #11D2D0",
"x c #1DD5D2",
"c c #2CCFDC",
"v c #2DCFDC",
"b c #2FD8D6",
"n c #31D0DD",
"m c #3BDAD9",
"M c #16E6C3",
"N c #17E6C4",
"B c #1CE6C5",
"V c #23E8C6",
"C c #22F0C0",
"Z c #29F2C1",
"A c #33E1D1",
"S c #2BC5E1",
"D c #2BC6E1",
"F c #55FDC7",
"G c #49E4D6",
"H c #4EEDD2",
"J c #4FEDD2",
"K c #7EFFD4",
"L c #7DF0DF",
"P c #7EF0DF",
"I c #73CCF3",
"U c #77E5E4",
"Y c #7AE2E8",
"T c #86D9F0",
"R c #A1D7FA",
"E c #92E9EB",
"W c #A4F8E6",
"Q c #A5F8E6",
"! c #A7F3EA",
"~ c #B6FCE9",
"^ c #AEE9F4",
"/ c #C0EDF6",
"( c #D0EFFA",
") c #D1FFF0",
"_ c #E9F7FE",
"` c #EBFDFA",
"' c #ECFEF9",
"] c #F1FBFD",
"[ c #F1FCFD",
"{ c #FBFEFF",
"} c #FCFFFE",
"| c white",
/* pixels */
"     %%%%%%     ",
"   %%%@..@%%%   ",
"  %%%O+KK+O%%%  ",
" $%#oF)'')FO#%$ ",
" -=Z~{QCCQ{~Z=- ",
"NNMBPHXVVXHPBNNN",
"jgA!hdG``GdhWAgj",
"zfb{mxUEEUxm{blz",
"l;c]nv|YY|vn]vkl",
">;c]c>/^^^>S]S;:",
"e7t|T07yS88T|twe",
" 0qI_(p9qs(_Iq0 ",
" r6,uR|ss|Ru,6r ",
"  5541aiia<455  ",
"   5441411445   ",
"     444445     "
};
