/* XPM */
static char *_52096c6033c47e7b39cae949fe4e422WFr6KFvQwsomqLMa[] = {
/* columns rows colors chars-per-pixel */
"32 32 249 2 ",
"   c None",
".  c #0EFFAF",
"X  c #06E8BD",
"o  c #07E8BD",
"O  c #09EDBA",
"+  c #0CE8BE",
"@  c #11EEBC",
"#  c #17EEBE",
"$  c #19EEBE",
"%  c #18EEBF",
"&  c #19EEBF",
"*  c #0DF8B3",
"=  c #0FF3B8",
"-  c #11FEB1",
";  c #15FFB1",
":  c #15FEB2",
">  c #14F9B6",
",  c #18FFB2",
"<  c #1BFFB3",
"1  c #1CFEB4",
"2  c #1DFEB4",
"3  c #1DFFB4",
"4  c #1DFEB5",
"5  c #1EFFB4",
"6  c #10F3B8",
"7  c #1AF4BB",
"8  c #1AF3BC",
"9  c #1BF9B9",
"0  c #1CF9B8",
"q  c #24FFB6",
"w  c #3FFFBF",
"e  c #00ADDE",
"r  c #00B7DC",
"t  c #00BCD9",
"y  c #02BDDA",
"u  c #02BEDA",
"i  c #03BEDA",
"p  c #00B8DD",
"a  c #06B9DE",
"s  c #06BADE",
"d  c #0ABBDE",
"f  c #009CED",
"g  c #009DED",
"h  c #009DEE",
"j  c #008FF4",
"k  c #0096F0",
"l  c #0090F6",
"z  c #0091F6",
"x  c #0093F6",
"c  c #0094F5",
"v  c #0294F5",
"b  c #0097F4",
"n  c #0096F5",
"m  c #0196F5",
"M  c #0197F5",
"N  c #0094F6",
"B  c #0394F6",
"V  c #009BF1",
"C  c #0099F2",
"Z  c #029CF2",
"A  c #039CF2",
"S  c #119EF2",
"D  c #00A6E7",
"F  c #00AAE3",
"G  c #00ACE3",
"H  c #00ADE3",
"J  c #04AAE7",
"K  c #05ABE7",
"L  c #06ABE7",
"P  c #07ABE7",
"I  c #05AFE4",
"U  c #07ACE7",
"Y  c #00A1E9",
"T  c #00A2EA",
"R  c #02A5EB",
"E  c #04A6EB",
"W  c #05A6EB",
"Q  c #05A7EB",
"!  c #02A0EE",
"~  c #03A0EE",
"^  c #03A1EE",
"/  c #04A1EE",
"(  c #03A9E8",
")  c #12ADE9",
"_  c #00B2E0",
"`  c #00B3E0",
"'  c #04B3E0",
"]  c #04B4E0",
"[  c #05B0E4",
"{  c #06B0E4",
"}  c #09B6E1",
"|  c #08B0E5",
" . c #08B1E5",
".. c #16B3E5",
"X. c #3CB6EF",
"o. c #37BEEA",
"O. c #27A2F6",
"+. c #2BA2F7",
"@. c #42BAEF",
"#. c #58BDF4",
"$. c #02CCCF",
"%. c #07CECF",
"&. c #0BDEC6",
"*. c #0DDEC6",
"=. c #0DDEC7",
"-. c #03D2CB",
";. c #08D3CD",
":. c #0FD4CE",
">. c #07D8C9",
",. c #08D9C9",
"<. c #09D9C9",
"1. c #10DEC7",
"2. c #12D5CF",
"3. c #13DACB",
"4. c #14DACB",
"5. c #13DFC8",
"6. c #15DFC8",
"7. c #01C7D3",
"8. c #02C2D5",
"9. c #00C3D6",
"0. c #04C4D6",
"q. c #04C8D3",
"w. c #05C8D3",
"e. c #05CDD0",
"r. c #06CDD0",
"t. c #0FCAD5",
"y. c #0CC0DB",
"u. c #0CC1DB",
"i. c #0EC5D8",
"p. c #0EC6D8",
"a. c #10CFD2",
"s. c #1DCED7",
"d. c #36CFDF",
"f. c #24D8D2",
"g. c #26D8D2",
"h. c #3EDBD7",
"j. c #38DCD6",
"k. c #39DCD6",
"l. c #37D3DC",
"z. c #36D0DF",
"x. c #38D7D9",
"c. c #03E2C0",
"v. c #04E2C0",
"b. c #08E2C2",
"n. c #0DE3C3",
"m. c #0DE4C2",
"M. c #0CE4C3",
"N. c #0EE4C3",
"B. c #12E3C4",
"V. c #15E4C4",
"C. c #16E4C4",
"Z. c #17E4C5",
"A. c #1AE4C6",
"S. c #11E8C0",
"D. c #13E9C0",
"F. c #16E9C1",
"G. c #17E9C2",
"H. c #18E9C2",
"J. c #1EEFC0",
"K. c #2FE7CB",
"L. c #31E3CF",
"P. c #30EBC8",
"I. c #38ECCA",
"U. c #2FF5C1",
"Y. c #3EE5D2",
"T. c #3FE5D2",
"R. c #3AE0D4",
"E. c #3BE0D4",
"W. c #35C6E3",
"Q. c #35C2E6",
"!. c #35CAE1",
"~. c #39CCE1",
"^. c #3ACCE1",
"/. c #45D6DF",
"(. c #4CDBDD",
"). c #4BFBC6",
"_. c #49E2D7",
"`. c #52ECD3",
"'. c #5EE0DF",
"]. c #5DE3DE",
"[. c #68FFCE",
"{. c #62F6D1",
"}. c #6EF5D6",
"|. c #40C8E5",
" X c #40C9E5",
".X c #4AC8E9",
"XX c #53CEE8",
"oX c #46D3E1",
"OX c #47D3E1",
"+X c #57D3E6",
"@X c #57D7E4",
"#X c #5AD4E7",
"$X c #57DAE3",
"%X c #58DBE3",
"&X c #58DEE0",
"*X c #59DEE0",
"=X c #5FD2EA",
"-X c #64DFE2",
";X c #60D9E5",
":X c #65D0EC",
">X c #6CD2ED",
",X c #60C8F0",
"<X c #7DC9F8",
"1X c #84F5DD",
"2X c #89FFD8",
"3X c #8AFFD8",
"4X c #84D7F1",
"5X c #85D0F6",
"6X c #94D9F5",
"7X c #ABD9FC",
"8X c #A3F6E7",
"9X c #A4F6E7",
"0X c #A0FBE3",
"qX c #A4F3E9",
"wX c #A7F7E8",
"eX c #A8F7E8",
"rX c #B6F5EE",
"tX c #B7F5EE",
"yX c #B9FDE9",
"uX c #BCECF6",
"iX c #B8E4F9",
"pX c #BDE7F9",
"aX c #BCF3F2",
"sX c #C0FEEB",
"dX c #C2E4FC",
"fX c #CBE9FC",
"gX c #CBEAFC",
"hX c #D3EEFC",
"jX c #C0F2F4",
"kX c #D7FDF3",
"lX c #DAFFF3",
"zX c #DAF2FB",
"xX c #DFF9F9",
"cX c #EBF7FE",
"vX c #EDFCFB",
"bX c #EDFEFA",
"nX c #EDF9FD",
"mX c #F2FFFB",
"MX c #F4FEFC",
"NX c #F5FEFC",
"BX c #F4FFFC",
"VX c #F7FDFE",
"CX c #F9FDFE",
"ZX c #FAFEFE",
"AX c #FCFEFE",
"SX c #FDFFFE",
"DX c #FCFEFF",
"FX c #FDFEFF",
"GX c white",
/* pixels */
"                        3 3 3 3 3 3 3 3                         ",
"                  3 3 3 3 3 3 3 3 3 3 3 3 3 3                   ",
"              3 3 3 3 3 3 3 3 3 3 3 3 3 3 3 3 3 3               ",
"            3 3 3 3 3 3 3 3 3 : : 3 3 3 3 3 3 3 3 3             ",
"          3 3 3 3 3 3 3 3 < . w w . : 3 3 3 3 3 3 3 3           ",
"        3 3 3 3 3 3 3 1 . q 3XBXmX2Xq ; 3 3 3 3 3 3 3 3         ",
"      3 3 3 3 3 3 3 ; : [.lXAXAXAXAXlX[.: ; < 3 3 3 3 3 3       ",
"    7 0 0 0 0 0 > * ).sXAXAXAXyXyXAXAXAXsX).* > 0 0 0 0 0 9     ",
"    8 7 7 7 7 6 U.0XAXAXAXlX{.= 6 {.kXAXAXAX0XU.= 8 8 8 7 8     ",
"  & & & H.# 6 }.BXAXAXmX1X& O & # O J.1XmXAXAXBX}.@ & & & & &   ",
"  G.H.G.G.G.S.P.qXBXeXP.o G.H.+ + H.G.X P.eXmX8XI.S.G.G.H.H.G.  ",
"  C.C.C.V.A.B.X M.P.N.N.V.n.M.`.`.M.n.V.N.N.K.N.c.B.A.V.V.V.V.  ",
"6.6.6.6.&.Y.tX_.=.=.5.6.1.L.qXAXAXqXL.5.6.5.=.=._.tXY.&.6.6.6.6.",
"3.3.3.3.<.R.AXZX_.<.3.>.R.vXAXAXAXAXvXE.>.3.>._.mXAXR.<.4.3.3.3.",
"2.2.2.2.;.k.AXAX].-.:.f.g.k.aXAXAXaXh.g.f.:.;.].AXAXk.;.2.2.2.2.",
"a.a.a.a.r.x.AXAX&X$.r.(.cX].$.-X-X$.].cX(.r.$.&XAXAXx.r.a.a.a.a.",
"i.a.i.a.w.l.AXAX%X7.q.oXAXAXjXs.s.jXAXAX/.q.7.$XAXAXl.q.t.t.t.t.",
"i.i.i.i.0.z.AXAX$X8.8.oXAXAXAX;X%XAXAXAXoX8.8.@XAXAX~.0.p.p.p.p.",
"y.y.y.y.i !.AXAX+Xi i ^.AXAXAX#X#XAXAXAX~.i t #XAXAX~.i y.y.y.y.",
"d d d d p W.AXAXXXr d d  XuXAX:X:XAXuX Xa d r XXAXAXW.p d d d d ",
"  } } } _ Q.AXAX:Xe _ } _ ' >X.X.X>X' _ } ] e :XAXAXQ._ } } }   ",
"  | | | G Q.AXAXnX4X..F [ [ H U [ H [ [ F ..4XnXAXAXo.H [ | |   ",
"  U U U Q ) 6XZXAXAXzX,XD D K K U K D ( ,XzXAXAXAX6X) K P U U   ",
"    Q Q Q T T X.pXAXAXAXpX@.T E E T @.pXAXAXAXpXX.T E W W Q     ",
"    / / / / f f f #.hXAXAXAX5XZ f 5XAXAXAXhX#.f f ~ ~ ~ ~ /     ",
"      A Z Z A A Z k S <XnXAXfXZ Z gXAXcX<XS k Z A A A A A       ",
"        Z N Z N n n n j +.7XdXx n dX7X+.x x n n n n n n         ",
"          B B B B B B N x j +.B B +.j j n x N N n x x           ",
"            N N N N N N B B l B B B B B N N N N n n             ",
"              N N N N N B B B B B B B B N N N N x               ",
"                  N B B B B B B B B B B N N n                   ",
"                        B B B B B B B B                         "
};
