/* XPM */
static char *_80eca6e22704f15eae603bea6853693gW549FmdlVmRsv37[] = {
/* columns rows colors chars-per-pixel */
"64 64 173 2 ",
"   c None",
".  c #0EFFAF",
"X  c #07E7BE",
"o  c #0CECBC",
"O  c #14EFBC",
"+  c #18EEBE",
"@  c #0BF4B6",
"#  c #0FFCB1",
"$  c #0CF1B9",
"%  c #15F7B7",
"&  c #12FDB2",
"*  c #1DFFB4",
"=  c #16F3BA",
"-  c #1AF3BB",
";  c #1BF8B9",
":  c #20FFB5",
">  c #25F6BE",
",  c #2DFFBA",
"<  c #01B5DE",
"1  c #02BBDA",
"2  c #0BBCDE",
"3  c #0096EF",
"4  c #029EEE",
"5  c #008EF6",
"6  c #0094F6",
"7  c #029BF2",
"8  c #0898F4",
"9  c #1C9DF6",
"0  c #00A6E7",
"q  c #04ADE5",
"w  c #08AFE5",
"e  c #03A3EC",
"r  c #06A9E9",
"t  c #0CAAE9",
"y  c #12ACE9",
"u  c #1BA9EF",
"i  c #05B2E2",
"p  c #09B4E2",
"a  c #12B5E3",
"s  c #17A4F0",
"d  c #26BDE6",
"f  c #21B3E9",
"g  c #28B1ED",
"h  c #2FB8EB",
"j  c #34B3EF",
"k  c #3DBEEA",
"l  c #2FABF2",
"z  c #42ACF8",
"x  c #49B4F5",
"c  c #44B9F0",
"v  c #5BB8F9",
"b  c #01CCCE",
"n  c #05DCC5",
"m  c #0BDFC5",
"M  c #04D3CB",
"N  c #0BD3CD",
"B  c #0ADAC8",
"V  c #11D5CE",
"C  c #13DBCA",
"Z  c #01C3D5",
"A  c #0EC7D7",
"S  c #03C9D2",
"D  c #0FCAD5",
"F  c #06C0D9",
"G  c #0DC3D9",
"H  c #11CED3",
"J  c #11D1D1",
"K  c #2CD6D6",
"L  c #2CD4D8",
"P  c #39DDD5",
"I  c #06E3C1",
"U  c #0CE3C3",
"Y  c #15E3C5",
"T  c #17E8C2",
"R  c #19EAC1",
"E  c #29EAC7",
"W  c #24E4CA",
"Q  c #28E0CE",
"!  c #20E9C5",
"~  c #3DE9CE",
"^  c #26F2C0",
"/  c #3CF2C7",
"(  c #3CF8C3",
")  c #32C6E3",
"_  c #58DFDE",
"`  c #45FFC1",
"'  c #4DF9C8",
"]  c #50F3CD",
"[  c #58FCCA",
"{  c #44E7D2",
"}  c #44EAD1",
"|  c #55E0DD",
" . c #59E3DC",
".. c #5DE9D9",
"X. c #57F1D1",
"o. c #61FFCA",
"O. c #61E7DB",
"+. c #76ECDF",
"@. c #6BF5D6",
"#. c #70F9D4",
"$. c #79FED3",
"%. c #75F4DA",
"&. c #4DCCE7",
"*. c #55CFE7",
"=. c #54CCEA",
"-. c #59CAED",
";. c #55D3E5",
":. c #57DAE2",
">. c #5DDCE2",
",. c #4FC1F0",
"<. c #6BD1EE",
"1. c #70D4ED",
"2. c #76DEE9",
"3. c #7CDEEB",
"4. c #6DC1F8",
"5. c #63C3F4",
"6. c #74CEF2",
"7. c #7ED2F3",
"8. c #77E3E7",
"9. c #7CE5E6",
"0. c #77E0E8",
"q. c #8CFDDB",
"w. c #91F8DF",
"e. c #99FFDD",
"r. c #86CFF7",
"t. c #90CEFB",
"y. c #8CD4F7",
"u. c #8ED3F8",
"i. c #97DCF5",
"p. c #93D3FA",
"a. c #9DD5FB",
"s. c #A2DDF7",
"d. c #ACDDFB",
"f. c #81E5E7",
"g. c #94EDE8",
"h. c #9CE9EE",
"j. c #89F3E0",
"k. c #99F3E6",
"l. c #9CE1F2",
"z. c #A3EDEE",
"x. c #ACF2ED",
"c. c #B2FDE7",
"v. c #BCFCEC",
"b. c #B3FAEA",
"n. c #A1E6F2",
"m. c #A2E9F0",
"M. c #AEE8F3",
"N. c #BAE9F7",
"B. c #B1E2F9",
"V. c #BFE7FA",
"C. c #B5F2F0",
"Z. c #C6FDEE",
"A. c #CCFEEF",
"S. c #C3EFF7",
"D. c #C7E8FC",
"F. c #CBEEFA",
"G. c #C3F2F4",
"H. c #CDF5F6",
"J. c #CCF7F3",
"K. c #D2FCF2",
"L. c #DDFDF5",
"P. c #D4F2FA",
"I. c #DCF2FC",
"U. c #E4FFF7",
"Y. c #E4F5FD",
"T. c #E6FBFA",
"R. c #E6FDF8",
"E. c #EBFAFC",
"W. c #F3FDFD",
"Q. c #FAFFFE",
"!. c white",
"~. c #FEFFFF",
"^. c #FFFFFF",
/* pixels */
"                                                    : * * * * * * * * * * *                                                     ",
"                                            * * * * * * * * * * * * * * * * : : * *                                             ",
"                                        * * * * * * * * * * * * * * * * * * * * * * * *                                         ",
"                                  : : * * * * * * * * * * * * * * * * * * * * * * * * * : : *                                   ",
"                                * * * * * * * * * * * * * * * * * * * * * * * * * * * * * * * *                                 ",
"                            * * * * * * * * * * * * * * * * * * * * * * * * * * * * * * * * * * * *                             ",
"                          * * * * * * * * * * * * * * * * * * * * * * * * * * * * * * * * * * * * * *                           ",
"                      * * * * * * * * * * * * * * * * * * * * * * * * * * * * * * * * * * * * * * * * * *                       ",
"                    * * * * * * * * * * * * * * * * * * * * * . . * * * * * * * * * * * * * * * * * * * * *                     ",
"                  * * * * * * * * * * * * * * * * * * * * . * q.q.: . * * * * * * * * * * * * * * * * * * * *                   ",
"                * * * * * * * * * * * * * * * * * * * . & o.K.!.Q.A.o.. & * * * * * * * * * * * * * * * : * * *                 ",
"              * * * * * * * * * * * * * * * * * * & . ` v.!.!.!.Q.~.~.v.` . & * * * * * * * * * * * * * * * * * :               ",
"              * * * * * * * * * * * * * * * * & . , e.Q.!.!.!.!.Q.Q.~.~.Q.e., . * * * * * * * * * * * * * * * * *               ",
"            : * * * * : * * * * ; * * : * * & * $.R.~.~.!.!.!.!.Q.Q.~.~.~.~.U.$.* . ; : * * * * * * * * * : * * * *             ",
"          ; * ; ; ; * ; ; ; ; * ; : ; ; & % [ A.~.~.~.~.!.!.!.!.Q.Q.~.~.~.~.~.~.A.[ & & ; ; ; * * ; ; * ; ; ; * ; ; ;           ",
"          ; ; ; ; ; ; ; ; ; ; ; ; ; % % , c.~.~.~.~.~.~.!.!.Z.' ' A.~.~.~.~.~.~.Q.Q.c.( # % ; ; - ; ; ; ; ; ; ; ; ; ;           ",
"        - - - - - - - - - - - - = @ > q.W.!.!.!.!.!.!.!.U.#.= $ $ = #.L.!.!.!.!.!.!.!.W.w.> @ = - - - ; - ; - - - - - -         ",
"      - - - - - - - - - - - - $ = #.L.!.!.!.!.!.!.!.W.w.^ @ = = - = $ ^ w.W.!.!.!.!.!.!.!.L.@.= $ - + - + + - - - - - - -       ",
"      - - - R - R - - R - + + ] Z.!.!.!.!.!.!.!.!.b./ o O + + + + + - O o / b.!.!.!.!.!.!.!.!.Z.] O + + + + + + + + + + +       ",
"      R R R + R - R R R R O @.!.!.!.!.!.!.!.!.A.X.o o R + + + + + + + + + o o X.A.!.!.!.!.!.!.!.~.#.O + + + + + + + + + +       ",
"    T T R R R R T T R R R R R @.L.!.!.!.!.R.%.R X R R R R T T T R R R R R R T U + %.R.!.!.!.!.L.@.R + Y + + Y + R R T T R R     ",
"    T T R T T T T T T T T T T I ! j.W.!.k.E X T T T T T T T T + R T T T T T T R Y X E k.Q.W.j.R I + T + Y Y + + T T T T R T     ",
"  T T Y T T T T Y T T Y Y T T T Y X ~ { I U T T Y T T T T Y I Y Y I Y Y Y T T Y T T U X { ~ I Y Y + Y Y Y + Y Y Y T Y T T T T   ",
"  Y Y Y Y Y Y C Y Y Y Y Y U Y Y Y Y U U Y Y Y Y Y Y Y Y U n { v.v.} I U Y Y Y Y Y Y Y Y U U T Y C Y m Y ! C Y Y Y Y Y Y Y Y Y   ",
"  Y Y C Y C Y Y Y Y m ..G.} n m C Y Y C C Y Y Y Y C Y n Q k.Q.!.!.Q.k.Q n m Y C C Y Y Y Y C Y Y U n } G...m C Y C Y Y Y C Y C   ",
"  C Y C C Y C C C C n ..!.Q.k.Q n C C Y Y C C C C n C +.T.!.!.!.!.!.!.T.+.Y n C Y C C C Y C C m Q k.Q.!...m C C C C C C Y C C   ",
"C C C C C C C C C C n  .!.!.!.T.O.m C C C C C C C ..A.!.!.!.!.!.!.!.!.!.!.K.O.C C C C C C C m O.T.!.!.!. .n C C C C C C C C C C ",
"C V C V C V C C C V n  .!.!.!.!.x.M V C C C V C V g.!.!.!.!.!.!.!.!.!.!.!.!.g.C V C C C V V M x.!.!.!.!.| n C C C C C V V C C C ",
"J V C J C J V V J V M  .!.!.!.!.z.M V V V V V N M M P C.!.!.!.!.!.!.!.!.C.P M M N V V V V V M z.!.!.!.!.| N V V V C V V V V V V ",
"V J J J J J J J V V M | !.!.!.!.z.M V J V V N  .| M M M | H.!.!.!.!.H. .b M M | | N V V V V M z.!.!.!.!._ M V V J J V J V V V V ",
"J J J J J J J J J J b | !.!.!.!.z.b J J J J b 9.!.z.K b b J 9.E.E.8.J b b K z.!.9.b J J J J b z.!.!.!.!._ b J J J J J J H V V H ",
"J J H H J J H H H H S _ !.!.!.!.z.b J H D J S 8.!.!.E.f.J b b L K b b H f.E.!.!.8.S J D J H S z.!.!.!.!.>.b H H H H H H H H H H ",
"H H H A H A A H D D S :.!.!.!.!.h.S D D D D S 8.!.!.!.!.P._ D S S D >.P.!.!.!.!.8.S D D D D S z.!.!.!.!.:.S D D D D H H A H A D ",
"A A A H A H A H D D Z :.!.!.!.!.z.S D D D A S 2.!.!.!.!.!.!.h.A S h.!.!.!.!.!.!.2.S D D D D Z z.!.!.!.!.:.Z D D D D A D A H H A ",
"A A A A A A A A A A Z :.!.!.!.!.n.Z A A A A S 2.!.!.!.!.!.!.H.Z A H.!.!.!.!.!.!.2.Z A A A A S z.!.!.!.!.:.Z A A A A A A A A G A ",
"G G G A G G G G G G Z ;.!.!.!.!.z.1 G A G G 1 2.!.!.!.!.!.!.S.A F G.!.!.!.!.!.!.2.F G A G G 1 h.!.!.!.!.:.F G G G G A G G A G G ",
"G G G G G 2 G G G G 1 ;.!.!.!.!.n.1 G F G G 1 3.!.!.!.!.!.!.S.F 1 G.!.!.!.!.!.!.3.1 G G G G 1 n.!.!.!.!.;.1 G G G G 2 G G G G G ",
"2 2 2 2 G 2 2 G 2 F 1 ;.!.!.!.!.n.1 2 G G 2 1 ;.W.!.!.!.!.!.S.1 1 S.!.!.!.!.!.W.;.1 2 2 2 2 1 n.!.!.!.!.;.1 2 2 2 G 2 2 2 2 G 2 ",
"  2 2 2 2 2 2 2 2 2 < ;.!.!.!.!.n.< 2 2 2 2 2 < ) M.!.!.!.!.S.2 2 G.!.!.!.!.M.) < 2 2 2 2 2 1 n.!.!.!.!.*.1 2 2 2 2 2 2 2 2 2   ",
"  2 2 2 2 p 2 2 p 2 < *.!.!.!.!.n.< 2 2 p 2 2 2 < < &.H.!.!.S.< < S.!.!.F.&.< < 2 2 < 2 2 2 < n.!.!.!.!.*.< < 2 p 2 2 2 p 2 2   ",
"  p p p p p 2 p p < < *.!.!.!.!.l.< < 2 < p a 2 p p < p 1.E.P.< < P.E.1.p < p p p 2 p 2 < p < i.!.!.!.!.*.i p p 2 p p p 2 p p   ",
"  p p p p p p p p p w =.!.!.!.!.N.a q i p p p p p p p i < d <.p p 1.d q i p p p p p p p < q a S.!.!.!.!.=.i p p p p p p p p p   ",
"    p p p p p p i i q =.!.!.!.!.!.P.-.q q i p p p w p i i q q i i q q i p w i p i i p q q =.P.!.!.!.!.!.=.q p p p p w p w p     ",
"    p w w w w t w w q -.!.!.!.!.!.!.!.N.k q q r w w w w w w i w w w w i w w w w w q 0 k N.!.!.!.!.!.!.Q.-.q q p w w w w w p     ",
"      w t r w r r w q h P.!.!.!.!.!.!.!.W.i.f 0 r w t r r w w t w r r w r w w r 0 f i.Q.!.!.!.!.!.!.!.P.h r q q w r w w t       ",
"      r r r r r w r r e y 7.E.!.!.!.!.!.!.!.Y.6.t r q r r r r w r r w r r q 0 t 6.Y.!.!.!.!.!.!.!.E.7.y r r r r r r r r r       ",
"      r r r r r r r r t e 4 g s.!.!.!.!.!.!.!.!.F.c 0 0 r e r e r r r e e 0 c F.!.!.!.!.!.!.!.!.s.g 4 0 r r e r e t r r r       ",
"        e e e e e e e e e 0 0 4 c V.!.!.!.!.!.!.!.!.B.j e e e e e e e e j B.!.!.!.!.!.!.!.!.V.c 4 e e e e r e e e e e e         ",
"          e e e e e e e e e e e 7 e 5.I.!.!.!.!.!.!.!.W.y.u e e e e u y.W.!.!.!.!.!.!.!.I.5.e 7 e e e e e e e e e e e           ",
"          4 4 4 e 8 7 e 7 e e 8 e 4 7 s r.W.!.!.!.!.!.!.!.y.3 e 4 3 u.!.!.!.!.!.!.!.E.r.s 4 7 e 4 4 4 4 7 e 7 e e 8 e           ",
"            4 4 7 7 8 e 7 e 7 7 e 7 7 7 6 l d.!.!.!.!.!.!.p.3 7 7 7 p.!.!.!.!.!.!.d.l 7 7 4 7 7 7 4 7 7 e 7 4 7 7 7             ",
"              7 7 7 7 7 7 7 7 7 7 7 7 7 7 7 3 x D.!.!.!.!.p.6 7 3 6 p.!.!.!.!.D.x 6 7 7 7 7 7 7 7 7 7 7 7 7 7 7 8               ",
"              6 7 7 6 7 8 7 7 7 7 7 6 7 6 6 6 6 8 4.Y.!.!.t.5 7 7 6 p.!.!.Y.4.8 6 3 7 7 6 7 6 7 7 8 7 6 7 7 7 6 7               ",
"                6 6 6 6 6 6 6 6 6 6 6 6 6 6 6 6 6 5 9 t.!.a.5 6 6 5 a.!.t.9 5 6 6 6 6 6 6 6 6 6 6 6 6 6 6 6 6 6                 ",
"                  6 6 6 6 6 6 6 6 6 6 6 6 6 6 6 6 6 5 5 z v 6 6 6 5 v z 5 5 6 6 6 6 6 6 6 6 6 6 6 6 6 6 6 6 6                   ",
"                    6 6 6 6 6 6 6 6 6 6 6 6 6 6 6 6 6 6 5 5 6 6 6 6 5 5 6 6 6 6 6 6 6 6 6 6 6 6 6 6 6 6 6 6                     ",
"                      6 6 6 6 6 6 6 6 6 6 6 6 6 6 6 6 6 6 6 6 6 6 6 6 6 6 6 6 6 6 6 6 6 6 6 6 6 6 6 6 6 6                       ",
"                          6 6 6 6 6 6 6 6 6 6 6 6 6 6 6 6 6 6 6 6 6 6 6 6 6 6 6 6 6 6 6 6 6 6 6 6 6 6                           ",
"                            6 6 6 6 6 6 6 6 6 6 6 6 6 6 6 6 6 6 6 6 6 6 6 6 6 6 6 6 6 6 6 6 6 6 6 6                             ",
"                                6 6 6 6 6 6 6 6 6 6 6 6 6 6 6 6 6 6 6 6 6 6 6 6 6 6 6 6 6 6 6 6                                 ",
"                                  6 6 6 6 6 6 6 6 6 6 6 6 6 6 6 6 6 6 6 6 6 6 6 6 6 6 6 6 6 6                                   ",
"                                        6 6 6 6 6 6 6 6 6 6 6 6 6 6 6 6 6 6 6 6 6 6 6 6                                         ",
"                                            6 6 6 6 6 6 6 6 6 6 6 6 6 6 6 6 6 6 6 6                                             ",
"                                                    6 6 6 6 6 6 6 6 6 6 6 6                                                     "
};
